<svg width="4921" height="823" viewBox="0 0 4921 823" fill="none" xmlns="http://www.w3.org/2000/svg">
<path d="M625.064 142.804H95.0645V672.804H625.064V142.804Z" fill="#B4C3F3"/>
<path d="M379.764 516.811C467.63 516.811 538.86 447.601 538.86 362.227C538.86 276.853 467.63 207.644 379.764 207.644C291.897 207.644 220.667 276.853 220.667 362.227C220.667 447.601 291.897 516.811 379.764 516.811Z" fill="#FF952F" stroke="black" stroke-width="0.833333"/>
<path d="M260.872 606.944L371.259 421.171L481.647 606.944H260.872Z" fill="#288CA3" stroke="black" stroke-width="0.833333"/>
<path d="M131.713 607.487L266.28 381.022L400.847 607.487H131.713Z" fill="#288CA3" stroke="black" stroke-width="0.833333"/>
<path d="M506.344 291.099H561.281L588.749 337.325L561.281 383.552H506.344L478.876 337.325L506.344 291.099Z" fill="white" stroke="black" stroke-width="0.833333"/>
<path d="M420.966 276.73H492.978L528.985 337.325L492.978 397.92H420.966L384.961 337.325L420.966 276.73Z" fill="white" stroke="black" stroke-width="0.833333"/>
<path d="M352.665 291.099H407.603L435.071 337.325L407.603 383.552H352.665L325.197 337.325L352.665 291.099Z" fill="white" stroke="black" stroke-width="0.833333"/>
<path d="M895.455 314.975V199.386C895.455 194.784 895.5 190.047 895.59 185.175C895.771 180.302 895.951 175.836 896.132 171.775C896.402 166.993 896.628 162.346 896.808 157.834C894.913 164.962 893.109 171.73 891.394 178.136C890.673 180.843 889.906 183.641 889.093 186.528C888.281 189.416 887.469 192.213 886.657 194.92C885.935 197.627 885.213 200.153 884.492 202.499C883.77 204.845 883.138 206.876 882.597 208.59L848.218 314.975H819.794L785.416 208.59C784.874 206.876 784.242 204.845 783.521 202.499C782.889 200.153 782.167 197.627 781.355 194.92C780.633 192.213 779.866 189.416 779.054 186.528C778.242 183.641 777.43 180.843 776.618 178.136C774.813 171.73 772.918 164.962 770.933 157.834C771.204 163.068 771.474 168.211 771.745 173.264C771.926 177.595 772.106 182.152 772.287 186.934C772.467 191.717 772.557 195.867 772.557 199.386V314.975H737.096V124.267H790.559L824.667 230.923C825.569 233.72 826.517 237.149 827.509 241.209C828.592 245.27 829.63 249.195 830.622 252.985C831.705 257.406 832.878 262.008 834.141 266.791C835.405 262.098 836.623 257.587 837.796 253.256C838.337 251.361 838.879 249.421 839.42 247.436C839.961 245.45 840.503 243.51 841.044 241.616C841.586 239.721 842.127 237.916 842.668 236.202C843.21 234.487 843.706 232.953 844.157 231.6L877.724 124.267H930.917V314.975H895.455ZM1002.65 317.682C995.614 317.682 989.297 316.735 983.703 314.84C978.199 312.855 973.507 310.012 969.627 306.313C965.747 302.523 962.769 297.876 960.693 292.372C958.618 286.867 957.58 280.596 957.58 273.558C957.58 264.896 959.069 257.632 962.047 251.767C965.115 245.811 969.266 241.029 974.499 237.42C979.733 233.72 985.869 231.058 992.907 229.434C999.945 227.72 1007.43 226.817 1015.37 226.727L1046.91 226.186V218.741C1046.91 213.418 1046.42 208.996 1045.42 205.477C1044.52 201.868 1043.17 198.935 1041.36 196.679C1039.56 194.424 1037.3 192.844 1034.59 191.942C1031.98 190.95 1028.95 190.453 1025.53 190.453C1022.37 190.453 1019.53 190.769 1017 191.401C1014.56 192.032 1012.44 193.16 1010.64 194.784C1008.83 196.318 1007.34 198.439 1006.17 201.146C1005.09 203.763 1004.32 207.101 1003.87 211.162L964.213 209.267C965.295 202.86 967.281 197.04 970.168 191.807C973.055 186.483 977.026 181.881 982.079 178.001C987.222 174.121 993.493 171.143 1000.89 169.068C1008.38 166.902 1017.13 165.82 1027.15 165.82C1036.26 165.82 1044.38 166.948 1051.51 169.203C1058.64 171.459 1064.69 174.843 1069.65 179.355C1074.61 183.776 1078.4 189.235 1081.02 195.732C1083.64 202.229 1084.94 209.763 1084.94 218.335V271.663C1084.94 275.092 1085.08 278.16 1085.35 280.867C1085.71 283.574 1086.3 285.875 1087.11 287.77C1088.01 289.574 1089.23 290.973 1090.76 291.966C1092.39 292.868 1094.46 293.319 1096.99 293.319C1099.88 293.319 1102.68 293.048 1105.38 292.507V313.08C1103.13 313.622 1101.1 314.118 1099.29 314.569C1097.49 315.02 1095.68 315.381 1093.88 315.652C1092.07 315.923 1090.13 316.148 1088.06 316.329C1086.07 316.509 1083.73 316.599 1081.02 316.599C1071.45 316.599 1064.37 314.253 1059.77 309.561C1055.26 304.869 1052.55 297.966 1051.65 288.853H1050.84C1045.78 297.966 1039.29 305.049 1031.35 310.103C1023.5 315.156 1013.93 317.682 1002.65 317.682ZM1046.91 247.165L1027.42 247.436C1023.36 247.616 1019.48 247.977 1015.78 248.518C1012.17 248.97 1008.97 250.007 1006.17 251.631C1003.46 253.165 1001.3 255.421 999.674 258.399C998.05 261.377 997.238 265.437 997.238 270.58C997.238 277.528 998.817 282.717 1001.98 286.146C1005.22 289.484 1009.51 291.154 1014.83 291.154C1019.71 291.154 1024.13 290.116 1028.1 288.04C1032.07 285.965 1035.41 283.258 1038.11 279.92C1040.91 276.491 1043.08 272.565 1044.61 268.144C1046.14 263.723 1046.91 259.211 1046.91 254.609V247.165ZM1261.71 241.074C1261.71 252.173 1260.58 262.414 1258.33 271.799C1256.16 281.183 1252.78 289.259 1248.18 296.026C1243.57 302.794 1237.71 308.117 1230.58 311.997C1223.54 315.787 1215.2 317.682 1205.54 317.682C1201.21 317.682 1196.88 317.231 1192.55 316.329C1188.31 315.426 1184.25 313.983 1180.37 311.997C1176.49 309.922 1172.88 307.26 1169.54 304.012C1166.29 300.673 1163.49 296.568 1161.15 291.695H1160.33C1160.42 292.146 1160.51 293.274 1160.61 295.079C1160.7 296.883 1160.79 299.004 1160.88 301.44C1160.97 303.786 1161.01 306.313 1161.01 309.02C1161.1 311.636 1161.15 314.073 1161.15 316.329V372.499H1123.11V202.229C1123.11 194.739 1122.98 188.062 1122.71 182.197C1122.53 176.332 1122.3 171.775 1122.03 168.527H1158.98C1159.16 169.158 1159.34 170.376 1159.52 172.181C1159.79 173.986 1159.97 176.061 1160.06 178.407C1160.24 180.753 1160.38 183.19 1160.47 185.716C1160.56 188.243 1160.61 190.453 1160.61 192.348H1161.15C1165.75 182.693 1172.06 175.79 1180.1 171.64C1188.13 167.489 1197.42 165.414 1207.98 165.414C1217.27 165.414 1225.3 167.308 1232.07 171.098C1238.84 174.888 1244.39 180.122 1248.72 186.799C1253.14 193.476 1256.39 201.462 1258.46 210.756C1260.63 219.96 1261.71 230.066 1261.71 241.074ZM1222.05 241.074C1222.05 224.381 1219.53 212.019 1214.47 203.988C1209.42 195.867 1201.89 191.807 1191.87 191.807C1188.08 191.807 1184.29 192.619 1180.5 194.243C1176.8 195.777 1173.46 198.484 1170.49 202.364C1167.6 206.154 1165.21 211.297 1163.31 217.794C1161.51 224.201 1160.61 232.321 1160.61 242.157C1160.61 251.722 1161.51 259.707 1163.31 266.114C1165.12 272.43 1167.46 277.483 1170.35 281.273C1173.33 285.063 1176.67 287.77 1180.37 289.394C1184.07 290.928 1187.81 291.695 1191.6 291.695C1196.47 291.695 1200.8 290.747 1204.59 288.853C1208.38 286.867 1211.54 283.845 1214.07 279.784C1216.69 275.633 1218.67 270.355 1220.02 263.948C1221.38 257.542 1222.05 249.917 1222.05 241.074ZM1377.84 155.127V314.975H1337.91V155.127H1276.33V124.267H1439.56V155.127H1377.84ZM1499.52 197.762C1504.66 186.573 1511.12 178.452 1518.88 173.399C1526.64 168.346 1535.88 165.82 1546.62 165.82C1555.47 165.82 1562.91 167.263 1568.96 170.151C1575.09 173.038 1580.05 177.009 1583.84 182.062C1587.72 187.115 1590.52 193.07 1592.24 199.928C1593.95 206.786 1594.81 214.185 1594.81 222.125V314.975H1556.91V232.953C1556.91 227.268 1556.46 222.08 1555.56 217.388C1554.65 212.606 1553.16 208.545 1551.09 205.206C1549.01 201.778 1546.31 199.116 1542.97 197.221C1539.63 195.326 1535.57 194.378 1530.79 194.378C1526.18 194.378 1521.99 195.416 1518.2 197.491C1514.5 199.477 1511.3 202.364 1508.59 206.154C1505.88 209.853 1503.76 214.32 1502.23 219.554C1500.78 224.697 1500.06 230.381 1500.06 236.608V314.975H1462.03V114.116H1500.06V168.933C1500.06 171.82 1500.02 174.753 1499.93 177.73C1499.84 180.618 1499.7 183.37 1499.52 185.987C1499.43 188.513 1499.34 190.814 1499.25 192.89C1499.16 194.965 1499.07 196.589 1498.98 197.762H1499.52ZM1691.45 317.682C1680.89 317.682 1671.37 316.148 1662.89 313.08C1654.5 309.922 1647.32 305.185 1641.37 298.868C1635.41 292.462 1630.86 284.476 1627.7 274.912C1624.54 265.257 1622.96 253.977 1622.96 241.074C1622.96 227.088 1624.81 215.313 1628.51 205.748C1632.3 196.183 1637.35 188.468 1643.67 182.603C1650.08 176.648 1657.43 172.362 1665.73 169.745C1674.03 167.128 1682.78 165.82 1691.99 165.82C1703.54 165.82 1713.37 167.85 1721.49 171.91C1729.71 175.881 1736.43 181.475 1741.66 188.694C1746.9 195.912 1750.73 204.575 1753.17 214.681C1755.6 224.697 1756.82 235.795 1756.82 247.977V249.06H1662.89C1662.89 255.196 1663.43 260.925 1664.51 266.249C1665.6 271.483 1667.35 276.039 1669.79 279.92C1672.23 283.709 1675.39 286.732 1679.27 288.988C1683.15 291.154 1687.84 292.236 1693.34 292.236C1700.02 292.236 1705.48 290.838 1709.72 288.04C1713.96 285.153 1716.98 280.732 1718.79 274.776L1754.66 277.889C1753.03 282.04 1750.73 286.461 1747.75 291.154C1744.87 295.846 1740.99 300.177 1736.11 304.147C1731.24 308.027 1725.15 311.276 1717.84 313.892C1710.62 316.419 1701.82 317.682 1691.45 317.682ZM1691.45 189.777C1687.57 189.777 1683.91 190.453 1680.48 191.807C1677.15 193.07 1674.21 195.145 1671.69 198.033C1669.25 200.83 1667.26 204.485 1665.73 208.996C1664.2 213.508 1663.34 218.922 1663.16 225.238H1720.01C1719.28 213.418 1716.44 204.575 1711.48 198.71C1706.52 192.754 1699.84 189.777 1691.45 189.777ZM1874.03 286.281C1881.52 286.281 1887.97 285.243 1893.39 283.168C1898.89 281.002 1903.63 278.205 1907.6 274.776C1911.66 271.347 1915 267.467 1917.62 263.136C1920.32 258.805 1922.53 254.429 1924.25 250.007L1959.03 263.136C1956.24 269.994 1952.58 276.716 1948.07 283.303C1943.56 289.89 1937.92 295.71 1931.15 300.763C1924.38 305.816 1916.31 309.922 1906.92 313.08C1897.63 316.148 1886.67 317.682 1874.03 317.682C1857.52 317.682 1843.22 315.246 1831.13 310.373C1819.04 305.41 1809.02 298.553 1801.08 289.8C1793.23 280.957 1787.36 270.49 1783.48 258.399C1779.7 246.308 1777.8 233.088 1777.8 218.741C1777.8 203.853 1779.7 190.408 1783.48 178.407C1787.36 166.406 1793.18 156.21 1800.94 147.818C1808.71 139.336 1818.5 132.839 1830.32 128.328C1842.23 123.726 1856.21 121.425 1872.27 121.425C1884.73 121.425 1895.6 122.733 1904.89 125.35C1914.28 127.967 1922.35 131.666 1929.12 136.449C1935.98 141.141 1941.62 146.735 1946.04 153.232C1950.55 159.639 1954.07 166.722 1956.6 174.482L1921.41 184.092C1920.14 180.031 1918.2 176.151 1915.59 172.452C1912.97 168.662 1909.63 165.323 1905.57 162.436C1901.6 159.548 1896.91 157.247 1891.49 155.533C1886.08 153.728 1879.94 152.826 1873.09 152.826C1863.43 152.826 1855.13 154.405 1848.18 157.563C1841.23 160.631 1835.5 165.053 1830.99 170.828C1826.57 176.603 1823.28 183.55 1821.11 191.671C1819.04 199.702 1818 208.726 1818 218.741C1818 228.667 1819.04 237.781 1821.11 246.082C1823.28 254.293 1826.62 261.377 1831.13 267.332C1835.64 273.287 1841.41 277.934 1848.45 281.273C1855.58 284.612 1864.11 286.281 1874.03 286.281ZM1986.1 314.975V114.116H2024.14V314.975H1986.1ZM2202.39 241.616C2202.39 252.804 2200.81 263.046 2197.66 272.34C2194.59 281.634 2189.94 289.665 2183.71 296.432C2177.49 303.109 2169.73 308.343 2160.43 312.133C2151.14 315.832 2140.31 317.682 2127.95 317.682C2116.04 317.682 2105.53 315.832 2096.41 312.133C2087.3 308.433 2079.63 303.245 2073.4 296.568C2067.27 289.89 2062.62 281.905 2059.46 272.611C2056.3 263.226 2054.73 252.895 2054.73 241.616C2054.73 230.697 2056.21 220.636 2059.19 211.433C2062.26 202.138 2066.86 194.108 2073 187.34C2079.13 180.573 2086.85 175.294 2096.14 171.504C2105.44 167.715 2116.31 165.82 2128.76 165.82C2141.94 165.82 2153.17 167.715 2162.46 171.504C2171.76 175.294 2179.34 180.573 2185.2 187.34C2191.16 194.018 2195.49 202.003 2198.2 211.297C2200.99 220.501 2202.39 230.607 2202.39 241.616ZM2162.6 241.616C2162.6 224.201 2159.76 211.568 2154.07 203.718C2148.39 195.867 2140.13 191.942 2129.3 191.942C2118.11 191.942 2109.54 195.912 2103.59 203.853C2097.63 211.793 2094.65 224.381 2094.65 241.616C2094.65 250.368 2095.42 257.903 2096.95 264.219C2098.58 270.535 2100.83 275.724 2103.72 279.784C2106.61 283.845 2110.08 286.867 2114.14 288.853C2118.2 290.747 2122.67 291.695 2127.54 291.695C2133.14 291.695 2138.1 290.747 2142.43 288.853C2146.85 286.867 2150.55 283.845 2153.53 279.784C2156.51 275.724 2158.76 270.535 2160.3 264.219C2161.83 257.903 2162.6 250.368 2162.6 241.616ZM2268.58 168.527V250.684C2268.58 256.369 2269.03 261.602 2269.93 266.385C2270.83 271.077 2272.32 275.137 2274.4 278.566C2276.47 281.905 2279.14 284.521 2282.38 286.416C2285.72 288.311 2289.78 289.259 2294.57 289.259C2299.17 289.259 2303.32 288.266 2307.02 286.281C2310.81 284.206 2314.06 281.318 2316.76 277.619C2319.47 273.829 2321.55 269.362 2322.99 264.219C2324.52 258.985 2325.29 253.256 2325.29 247.03V168.527H2363.32V282.22C2363.32 285.288 2363.32 288.537 2363.32 291.966C2363.41 295.304 2363.5 298.508 2363.59 301.575C2363.77 304.553 2363.91 307.26 2364 309.696C2364.18 312.043 2364.32 313.802 2364.41 314.975H2328.13C2328.04 313.892 2327.86 312.178 2327.59 309.832C2327.41 307.396 2327.23 304.734 2327.05 301.846C2326.96 298.959 2326.82 296.071 2326.64 293.184C2326.55 290.296 2326.51 287.86 2326.51 285.875H2325.83C2320.78 296.974 2314.33 305.049 2306.48 310.103C2298.72 315.156 2289.47 317.682 2278.73 317.682C2269.98 317.682 2262.53 316.238 2256.4 313.351C2250.26 310.463 2245.25 306.538 2241.37 301.575C2237.58 296.522 2234.83 290.567 2233.12 283.709C2231.4 276.852 2230.55 269.452 2230.55 261.512V168.527H2268.58ZM2497.05 314.975C2496.87 314.253 2496.64 312.99 2496.37 311.185C2496.19 309.29 2495.97 307.17 2495.7 304.824C2495.51 302.478 2495.33 300.087 2495.15 297.65C2495.06 295.214 2495.02 293.048 2495.02 291.154H2494.48C2490.06 300.628 2483.87 307.441 2475.93 311.591C2468.08 315.652 2458.65 317.682 2447.65 317.682C2438.44 317.682 2430.46 315.787 2423.69 311.997C2417.01 308.208 2411.46 302.929 2407.04 296.161C2402.71 289.394 2399.46 281.408 2397.3 272.205C2395.22 262.911 2394.18 252.804 2394.18 241.886C2394.18 230.788 2395.27 220.591 2397.43 211.297C2399.69 202.003 2403.12 194.018 2407.72 187.34C2412.32 180.573 2418.14 175.294 2425.18 171.504C2432.31 167.715 2440.74 165.82 2450.49 165.82C2455.27 165.82 2459.87 166.316 2464.29 167.308C2468.72 168.301 2472.82 169.835 2476.61 171.91C2480.4 173.986 2483.83 176.648 2486.9 179.896C2489.97 183.144 2492.58 187.07 2494.75 191.671H2495.02C2495.02 190.769 2494.97 189.461 2494.88 187.746C2494.88 185.942 2494.88 183.911 2494.88 181.656C2494.88 179.4 2494.84 177.054 2494.75 174.617C2494.75 172.181 2494.75 169.835 2494.75 167.579V114.116H2532.78V283.033C2532.78 290.161 2532.92 296.522 2533.19 302.117C2533.46 307.621 2533.68 311.907 2533.86 314.975H2497.05ZM2495.29 240.939C2495.29 231.284 2494.39 223.298 2492.58 216.982C2490.78 210.575 2488.39 205.522 2485.41 201.823C2482.52 198.033 2479.18 195.416 2475.39 193.972C2471.69 192.438 2467.9 191.671 2464.02 191.671C2459.15 191.671 2454.82 192.619 2451.03 194.514C2447.33 196.409 2444.17 199.386 2441.56 203.447C2439.03 207.507 2437.09 212.696 2435.74 219.012C2434.47 225.328 2433.84 232.953 2433.84 241.886C2433.84 275.092 2443.81 291.695 2463.75 291.695C2467.54 291.695 2471.33 290.883 2475.12 289.259C2478.91 287.634 2482.3 284.882 2485.27 281.002C2488.25 277.122 2490.64 271.934 2492.45 265.437C2494.34 258.85 2495.29 250.684 2495.29 240.939ZM2695.07 272.205C2695.07 279.243 2693.58 285.559 2690.6 291.154C2687.71 296.748 2683.47 301.53 2677.88 305.501C2672.28 309.381 2665.42 312.403 2657.3 314.569C2649.18 316.644 2639.93 317.682 2629.56 317.682C2620.26 317.682 2611.87 317.005 2604.38 315.652C2596.89 314.298 2590.3 312.088 2584.62 309.02C2579.03 305.862 2574.33 301.801 2570.54 296.838C2566.75 291.875 2563.91 285.74 2562.02 278.431L2595.45 273.423C2596.53 277.483 2598.02 280.777 2599.91 283.303C2601.81 285.83 2604.16 287.77 2606.95 289.123C2609.75 290.477 2613 291.379 2616.7 291.83C2620.49 292.281 2624.77 292.507 2629.56 292.507C2633.89 292.507 2637.9 292.281 2641.6 291.83C2645.39 291.289 2648.64 290.432 2651.35 289.259C2654.14 287.995 2656.31 286.281 2657.84 284.115C2659.38 281.86 2660.15 279.062 2660.15 275.724C2660.15 271.934 2659.02 268.956 2656.76 266.791C2654.6 264.535 2651.57 262.73 2647.69 261.377C2643.9 259.933 2639.39 258.715 2634.16 257.722C2629.01 256.639 2623.51 255.421 2617.65 254.068C2611.51 252.714 2605.46 251.09 2599.51 249.195C2593.55 247.3 2588.23 244.729 2583.54 241.48C2578.85 238.232 2575.06 234.126 2572.17 229.163C2569.28 224.11 2567.84 217.749 2567.84 210.079C2567.84 203.131 2569.19 196.95 2571.9 191.536C2574.6 186.032 2578.57 181.385 2583.81 177.595C2589.04 173.715 2595.49 170.782 2603.16 168.797C2610.92 166.722 2619.81 165.684 2629.83 165.684C2637.77 165.684 2645.17 166.451 2652.02 167.985C2658.88 169.429 2665.02 171.775 2670.43 175.023C2675.85 178.182 2680.36 182.242 2683.97 187.205C2687.67 192.168 2690.24 198.168 2691.68 205.206L2657.98 208.726C2657.35 205.206 2656.22 202.319 2654.6 200.063C2652.97 197.717 2650.94 195.867 2648.51 194.514C2646.16 193.16 2643.41 192.258 2640.25 191.807C2637.09 191.265 2633.62 190.995 2629.83 190.995C2620.8 190.995 2614.04 192.168 2609.52 194.514C2605.01 196.77 2602.76 200.605 2602.76 206.019C2602.76 209.357 2603.66 212.019 2605.46 214.004C2607.36 215.989 2609.98 217.659 2613.31 219.012C2616.74 220.275 2620.76 221.403 2625.36 222.396C2630.05 223.298 2635.15 224.426 2640.66 225.78C2647.42 227.223 2654.05 228.938 2660.55 230.923C2667.14 232.818 2672.96 235.48 2678.01 238.909C2683.15 242.247 2687.26 246.578 2690.33 251.902C2693.49 257.226 2695.07 263.993 2695.07 272.205Z" fill="white"/>
<path d="M725.45 644.372C725.45 637.006 726.432 630.354 728.396 624.417C730.405 618.479 733.374 613.435 737.302 609.283C741.275 605.087 746.186 601.873 752.034 599.641C757.882 597.364 764.668 596.226 772.391 596.226C778.194 596.226 783.283 596.739 787.658 597.766C792.033 598.792 795.827 600.266 799.042 602.185C802.256 604.105 804.979 606.448 807.211 609.216C809.443 611.939 811.34 615.02 812.903 618.457L800.716 622.073C799.555 619.752 798.149 617.654 796.497 615.779C794.89 613.859 792.926 612.23 790.604 610.89C788.283 609.551 785.582 608.524 782.502 607.81C779.466 607.051 775.984 606.672 772.056 606.672C766.342 606.672 761.364 607.565 757.123 609.35C752.927 611.136 749.445 613.68 746.677 616.984C743.909 620.287 741.833 624.26 740.449 628.903C739.11 633.546 738.441 638.702 738.441 644.372C738.441 650.041 739.177 655.242 740.65 659.974C742.124 664.661 744.311 668.724 747.213 672.161C750.114 675.554 753.708 678.21 757.994 680.13C762.324 682.005 767.324 682.942 772.993 682.942C776.699 682.942 780.114 682.63 783.239 682.005C786.363 681.38 789.176 680.576 791.676 679.594C794.22 678.567 796.452 677.451 798.372 676.246C800.292 674.996 801.899 673.746 803.193 672.496V655.487H775.002V644.773H814.979V677.317C812.881 679.46 810.403 681.513 807.546 683.478C804.734 685.397 801.564 687.094 798.037 688.567C794.511 690.04 790.649 691.201 786.453 692.049C782.256 692.897 777.77 693.321 772.993 693.321C765.047 693.321 758.105 692.116 752.168 689.705C746.231 687.25 741.275 683.857 737.302 679.527C733.374 675.152 730.405 669.974 728.396 663.992C726.432 658.01 725.45 651.47 725.45 644.372ZM837.947 691.982V597.632H850.737V691.982H837.947ZM948.636 665.934C948.636 669.907 947.855 673.567 946.292 676.915C944.774 680.263 942.408 683.165 939.194 685.62C935.98 688.031 931.918 689.928 927.007 691.312C922.141 692.652 916.36 693.321 909.664 693.321C897.923 693.321 888.771 691.268 882.209 687.161C875.647 683.054 871.473 677.116 869.687 669.349L882.075 666.871C882.7 669.326 883.66 671.558 884.955 673.567C886.249 675.576 887.99 677.317 890.178 678.79C892.41 680.219 895.155 681.335 898.414 682.138C901.673 682.942 905.579 683.344 910.133 683.344C913.927 683.344 917.409 683.031 920.579 682.406C923.748 681.737 926.471 680.732 928.748 679.393C931.025 678.054 932.788 676.335 934.038 674.237C935.333 672.094 935.98 669.549 935.98 666.603C935.98 663.523 935.266 661.023 933.837 659.103C932.453 657.184 930.489 655.599 927.945 654.349C925.4 653.099 922.364 652.05 918.838 651.202C915.311 650.354 911.405 649.438 907.119 648.456C904.485 647.876 901.829 647.251 899.151 646.581C896.517 645.867 893.972 645.041 891.517 644.104C889.106 643.122 886.83 641.983 884.687 640.689C882.544 639.394 880.691 637.854 879.129 636.068C877.566 634.238 876.339 632.14 875.446 629.774C874.553 627.363 874.107 624.595 874.107 621.47C874.107 617.006 875 613.189 876.785 610.02C878.615 606.806 881.138 604.172 884.352 602.118C887.566 600.065 891.361 598.569 895.736 597.632C900.11 596.694 904.842 596.226 909.932 596.226C915.78 596.226 920.78 596.694 924.931 597.632C929.083 598.525 932.587 599.886 935.444 601.716C938.301 603.547 940.578 605.823 942.275 608.547C944.016 611.225 945.399 614.35 946.426 617.921L933.837 620.131C933.212 617.854 932.297 615.823 931.092 614.038C929.931 612.252 928.391 610.756 926.471 609.551C924.552 608.346 922.208 607.431 919.44 606.806C916.717 606.181 913.503 605.868 909.798 605.868C905.423 605.868 901.74 606.27 898.749 607.073C895.803 607.832 893.414 608.881 891.584 610.221C889.798 611.56 888.504 613.145 887.7 614.975C886.941 616.761 886.562 618.703 886.562 620.801C886.562 623.613 887.254 625.935 888.638 627.765C890.066 629.551 891.986 631.046 894.396 632.251C896.807 633.457 899.597 634.461 902.767 635.265C905.936 636.068 909.307 636.872 912.878 637.675C915.78 638.345 918.659 639.037 921.516 639.751C924.418 640.421 927.186 641.247 929.82 642.229C932.453 643.166 934.909 644.282 937.185 645.577C939.507 646.872 941.516 648.456 943.212 650.331C944.908 652.206 946.225 654.416 947.163 656.961C948.145 659.505 948.636 662.496 948.636 665.934ZM1077.34 626.024C1077.34 630.131 1076.65 633.97 1075.26 637.541C1073.92 641.068 1071.89 644.148 1069.17 646.782C1066.49 649.371 1063.12 651.425 1059.06 652.943C1054.99 654.461 1050.26 655.22 1044.86 655.22H1017.14V691.982H1004.35V597.632H1044.06C1049.64 597.632 1054.5 598.324 1058.66 599.708C1062.81 601.047 1066.27 602.966 1069.03 605.466C1071.8 607.922 1073.88 610.913 1075.26 614.439C1076.65 617.921 1077.34 621.783 1077.34 626.024ZM1064.48 626.158C1064.48 620.176 1062.65 615.645 1058.99 612.564C1055.33 609.439 1049.84 607.877 1042.52 607.877H1017.14V645.108H1043.05C1050.42 645.108 1055.82 643.479 1059.26 640.22C1062.74 636.961 1064.48 632.274 1064.48 626.158ZM1095.82 691.982V597.632H1108.61V681.536H1156.29V691.982H1095.82ZM1239.05 691.982L1228.27 664.393H1185.28L1174.43 691.982H1161.18L1199.68 597.632H1214.21L1252.11 691.982H1239.05ZM1212.33 623.278C1211.62 621.493 1210.93 619.685 1210.26 617.854C1209.63 616.024 1209.08 614.372 1208.58 612.899C1208.09 611.381 1207.67 610.131 1207.31 609.149C1207 608.123 1206.82 607.498 1206.78 607.274C1206.69 607.498 1206.49 608.123 1206.17 609.149C1205.86 610.176 1205.44 611.448 1204.9 612.966C1204.41 614.484 1203.83 616.158 1203.16 617.988C1202.54 619.819 1201.89 621.627 1201.22 623.412L1189.17 654.416H1224.45L1212.33 623.278ZM1294.23 652.876V691.982H1281.51V652.876L1245.21 597.632H1259.28L1288 642.564L1316.6 597.632H1330.66L1294.23 652.876ZM1340.57 644.372C1340.57 637.006 1341.55 630.354 1343.51 624.417C1345.52 618.479 1348.49 613.435 1352.42 609.283C1356.39 605.087 1361.3 601.873 1367.15 599.641C1373 597.364 1379.79 596.226 1387.51 596.226C1393.31 596.226 1398.4 596.739 1402.78 597.766C1407.15 598.792 1410.95 600.266 1414.16 602.185C1417.37 604.105 1420.1 606.448 1422.33 609.216C1424.56 611.939 1426.46 615.02 1428.02 618.457L1415.83 622.073C1414.67 619.752 1413.27 617.654 1411.61 615.779C1410.01 613.859 1408.04 612.23 1405.72 610.89C1403.4 609.551 1400.7 608.524 1397.62 607.81C1394.58 607.051 1391.1 606.672 1387.17 606.672C1381.46 606.672 1376.48 607.565 1372.24 609.35C1368.04 611.136 1364.56 613.68 1361.79 616.984C1359.03 620.287 1356.95 624.26 1355.57 628.903C1354.23 633.546 1353.56 638.702 1353.56 644.372C1353.56 650.041 1354.29 655.242 1355.77 659.974C1357.24 664.661 1359.43 668.724 1362.33 672.161C1365.23 675.554 1368.83 678.21 1373.11 680.13C1377.44 682.005 1382.44 682.942 1388.11 682.942C1391.82 682.942 1395.23 682.63 1398.36 682.005C1401.48 681.38 1404.29 680.576 1406.79 679.594C1409.34 678.567 1411.57 677.451 1413.49 676.246C1415.41 674.996 1417.02 673.746 1418.31 672.496V655.487H1390.12V644.773H1430.1V677.317C1428 679.46 1425.52 681.513 1422.66 683.478C1419.85 685.397 1416.68 687.094 1413.15 688.567C1409.63 690.04 1405.77 691.201 1401.57 692.049C1397.37 692.897 1392.89 693.321 1388.11 693.321C1380.16 693.321 1373.22 692.116 1367.29 689.705C1361.35 687.25 1356.39 683.857 1352.42 679.527C1348.49 675.152 1345.52 669.974 1343.51 663.992C1341.55 658.01 1340.57 651.47 1340.57 644.372ZM1518.35 691.982L1493.84 652.809H1464.45V691.982H1451.66V597.632H1496.05C1501.41 597.632 1506.14 598.257 1510.25 599.507C1514.4 600.712 1517.88 602.475 1520.7 604.797C1523.51 607.118 1525.65 609.953 1527.13 613.301C1528.6 616.649 1529.33 620.421 1529.33 624.618C1529.33 627.609 1528.89 630.555 1528 633.457C1527.15 636.358 1525.79 639.015 1523.91 641.425C1522.04 643.836 1519.65 645.912 1516.75 647.653C1513.84 649.394 1510.36 650.621 1506.3 651.336L1533.08 691.982H1518.35ZM1516.48 624.752C1516.48 621.894 1515.99 619.417 1515.01 617.319C1514.02 615.221 1512.59 613.48 1510.72 612.096C1508.84 610.667 1506.57 609.618 1503.89 608.948C1501.21 608.234 1498.18 607.877 1494.78 607.877H1464.45V642.698H1495.32C1498.98 642.698 1502.15 642.251 1504.83 641.358C1507.51 640.421 1509.69 639.149 1511.39 637.541C1513.13 635.934 1514.4 634.037 1515.21 631.85C1516.05 629.662 1516.48 627.296 1516.48 624.752ZM1639.62 644.372C1639.62 651.737 1638.55 658.434 1636.41 664.46C1634.31 670.487 1631.25 675.643 1627.23 679.929C1623.22 684.214 1618.31 687.518 1612.5 689.839C1606.7 692.161 1600.11 693.321 1592.75 693.321C1584.98 693.321 1578.17 692.116 1572.32 689.705C1566.48 687.25 1561.61 683.857 1557.73 679.527C1553.84 675.152 1550.92 669.974 1548.96 663.992C1546.99 658.01 1546.01 651.47 1546.01 644.372C1546.01 637.006 1547.04 630.354 1549.09 624.417C1551.14 618.479 1554.16 613.435 1558.13 609.283C1562.1 605.087 1566.99 601.873 1572.79 599.641C1578.64 597.364 1585.34 596.226 1592.88 596.226C1600.38 596.226 1607.03 597.364 1612.84 599.641C1618.69 601.917 1623.57 605.154 1627.5 609.35C1631.48 613.546 1634.49 618.613 1636.54 624.551C1638.6 630.488 1639.62 637.095 1639.62 644.372ZM1626.56 644.372C1626.56 638.702 1625.83 633.546 1624.35 628.903C1622.93 624.26 1620.78 620.287 1617.93 616.984C1615.11 613.68 1611.61 611.136 1607.41 609.35C1603.22 607.565 1598.37 606.672 1592.88 606.672C1587.26 606.672 1582.32 607.565 1578.08 609.35C1573.84 611.136 1570.29 613.68 1567.44 616.984C1564.62 620.287 1562.5 624.26 1561.08 628.903C1559.69 633.546 1559 638.702 1559 644.372C1559 650.041 1559.71 655.242 1561.14 659.974C1562.62 664.661 1564.76 668.724 1567.57 672.161C1570.43 675.554 1573.95 678.21 1578.15 680.13C1582.39 682.005 1587.26 682.942 1592.75 682.942C1598.64 682.942 1603.71 681.982 1607.95 680.063C1612.23 678.143 1615.74 675.487 1618.46 672.094C1621.23 668.657 1623.26 664.572 1624.56 659.84C1625.89 655.108 1626.56 649.952 1626.56 644.372ZM1695.2 693.321C1690.02 693.321 1685.11 692.629 1680.47 691.245C1675.83 689.861 1671.74 687.719 1668.22 684.817C1664.73 681.871 1661.97 678.165 1659.91 673.701C1657.86 669.192 1656.83 663.858 1656.83 657.697V597.632H1669.62V656.626C1669.62 661.402 1670.25 665.465 1671.5 668.813C1672.79 672.116 1674.58 674.817 1676.85 676.915C1679.13 679.014 1681.81 680.554 1684.89 681.536C1688.01 682.473 1691.43 682.942 1695.13 682.942C1698.79 682.942 1702.25 682.451 1705.51 681.469C1708.77 680.487 1711.63 678.924 1714.08 676.781C1716.54 674.639 1718.46 671.849 1719.84 668.411C1721.27 664.929 1721.99 660.71 1721.99 655.755V597.632H1734.71V656.492C1734.71 662.786 1733.66 668.255 1731.56 672.898C1729.51 677.496 1726.7 681.313 1723.12 684.348C1719.55 687.384 1715.36 689.638 1710.54 691.111C1705.76 692.585 1700.65 693.321 1695.2 693.321ZM1817.81 691.982L1767.32 611.627C1767.41 613.814 1767.52 615.979 1767.65 618.122C1767.74 619.953 1767.81 621.894 1767.86 623.948C1767.94 625.957 1767.99 627.743 1767.99 629.305V691.982H1756.61V597.632H1771.47L1822.5 678.522C1822.36 676.335 1822.23 674.148 1822.1 671.96C1822.01 670.085 1821.92 668.054 1821.83 665.867C1821.74 663.634 1821.69 661.514 1821.69 659.505V597.632H1833.21V691.982H1817.81ZM1936.94 643.836C1936.94 651.693 1935.75 658.635 1933.39 664.661C1931.02 670.643 1927.78 675.665 1923.68 679.728C1919.57 683.746 1914.7 686.803 1909.08 688.902C1903.5 690.955 1897.47 691.982 1891 691.982H1855.71V597.632H1886.91C1894.19 597.632 1900.89 598.547 1907 600.377C1913.16 602.163 1918.45 604.953 1922.87 608.748C1927.29 612.497 1930.73 617.274 1933.19 623.077C1935.69 628.881 1936.94 635.8 1936.94 643.836ZM1924.08 643.836C1924.08 637.452 1923.16 632.006 1921.33 627.497C1919.5 622.944 1916.94 619.216 1913.63 616.314C1910.33 613.413 1906.38 611.292 1901.78 609.953C1897.18 608.569 1892.14 607.877 1886.65 607.877H1868.5V681.737H1889.53C1894.48 681.737 1899.06 680.933 1903.25 679.326C1907.49 677.719 1911.16 675.331 1914.24 672.161C1917.32 668.991 1919.73 665.041 1921.47 660.309C1923.21 655.577 1924.08 650.086 1924.08 643.836ZM1969.35 677.317V688.567C1969.35 690.933 1969.23 693.076 1969.01 694.995C1968.83 696.959 1968.52 698.767 1968.07 700.419C1967.63 702.116 1967.07 703.7 1966.4 705.174C1965.77 706.647 1965.02 708.098 1964.12 709.526H1955.89C1957.9 706.624 1959.44 703.7 1960.51 700.754C1961.62 697.808 1962.18 694.884 1962.18 691.982H1956.29V677.317H1969.35ZM2090.15 665.934C2090.15 670.264 2089.43 674.125 2088 677.518C2086.62 680.911 2084.57 683.79 2081.84 686.156C2079.16 688.478 2075.82 690.263 2071.8 691.513C2067.83 692.719 2063.27 693.321 2058.14 693.321C2052.29 693.321 2047.36 692.607 2043.34 691.178C2039.37 689.705 2036.09 687.786 2033.5 685.42C2030.91 683.009 2028.96 680.286 2027.67 677.25C2026.38 674.17 2025.53 671 2025.13 667.741L2037.58 666.603C2037.94 669.103 2038.59 671.38 2039.52 673.433C2040.5 675.487 2041.82 677.25 2043.47 678.723C2045.13 680.197 2047.16 681.335 2049.57 682.138C2051.98 682.942 2054.83 683.344 2058.14 683.344C2064.21 683.344 2068.96 681.848 2072.4 678.857C2075.88 675.866 2077.62 671.424 2077.62 665.532C2077.62 662.05 2076.84 659.26 2075.28 657.161C2073.76 655.019 2071.84 653.367 2069.52 652.206C2067.24 651.001 2064.75 650.197 2062.02 649.796C2059.34 649.394 2056.87 649.193 2054.59 649.193H2047.76V638.747H2054.32C2056.6 638.747 2058.96 638.524 2061.42 638.077C2063.87 637.586 2066.11 636.738 2068.12 635.533C2070.17 634.283 2071.84 632.608 2073.14 630.51C2074.48 628.412 2075.15 625.734 2075.15 622.475C2075.15 617.43 2073.65 613.457 2070.66 610.556C2067.71 607.609 2063.32 606.136 2057.47 606.136C2052.16 606.136 2047.85 607.498 2044.54 610.221C2041.29 612.944 2039.39 616.783 2038.85 621.738L2026.73 620.801C2027.22 616.649 2028.36 613.033 2030.15 609.953C2031.93 606.873 2034.19 604.328 2036.91 602.319C2039.68 600.266 2042.83 598.748 2046.35 597.766C2049.88 596.739 2053.63 596.226 2057.6 596.226C2062.87 596.226 2067.4 596.895 2071.2 598.234C2074.99 599.529 2078.09 601.315 2080.5 603.591C2082.91 605.823 2084.68 608.457 2085.79 611.493C2086.95 614.529 2087.53 617.765 2087.53 621.203C2087.53 623.97 2087.16 626.56 2086.4 628.97C2085.64 631.381 2084.45 633.546 2082.85 635.466C2081.24 637.385 2079.19 639.037 2076.69 640.421C2074.23 641.805 2071.26 642.854 2067.78 643.568V643.836C2071.58 644.238 2074.88 645.108 2077.69 646.447C2080.5 647.742 2082.82 649.371 2084.66 651.336C2086.49 653.3 2087.85 655.532 2088.74 658.032C2089.68 660.532 2090.15 663.166 2090.15 665.934ZM2188.71 643.836C2188.71 651.693 2187.53 658.635 2185.17 664.661C2182.8 670.643 2179.56 675.665 2175.46 679.728C2171.35 683.746 2166.48 686.803 2160.86 688.902C2155.28 690.955 2149.25 691.982 2142.78 691.982H2107.49V597.632H2138.69C2145.97 597.632 2152.67 598.547 2158.78 600.377C2164.94 602.163 2170.23 604.953 2174.65 608.748C2179.07 612.497 2182.51 617.274 2184.97 623.077C2187.47 628.881 2188.71 635.8 2188.71 643.836ZM2175.86 643.836C2175.86 637.452 2174.94 632.006 2173.11 627.497C2171.28 622.944 2168.72 619.216 2165.41 616.314C2162.11 613.413 2158.16 611.292 2153.56 609.953C2148.96 608.569 2143.92 607.877 2138.43 607.877H2120.28V681.737H2141.31C2146.26 681.737 2150.84 680.933 2155.03 679.326C2159.27 677.719 2162.93 675.331 2166.01 672.161C2169.09 668.991 2171.51 665.041 2173.25 660.309C2174.99 655.577 2175.86 650.086 2175.86 643.836ZM2324.98 691.982V629.037C2324.98 626.76 2325.01 624.439 2325.05 622.073C2325.1 619.707 2325.16 617.542 2325.25 615.578C2325.34 613.301 2325.45 611.091 2325.59 608.948C2324.96 611.225 2324.31 613.48 2323.64 615.712C2323.06 617.631 2322.42 619.685 2321.7 621.872C2321.03 624.015 2320.36 625.957 2319.69 627.698L2295.32 691.982H2286.35L2261.64 627.698C2261.37 627.028 2261.08 626.247 2260.77 625.354C2260.5 624.461 2260.19 623.524 2259.83 622.542C2259.52 621.515 2259.18 620.488 2258.82 619.462C2258.51 618.39 2258.2 617.341 2257.89 616.314C2257.13 613.948 2256.39 611.493 2255.68 608.948C2255.72 611.448 2255.79 613.926 2255.88 616.381C2255.97 618.479 2256.03 620.689 2256.08 623.011C2256.12 625.287 2256.15 627.296 2256.15 629.037V691.982H2244.76V597.632H2261.57L2286.68 663.054C2286.99 663.947 2287.37 665.108 2287.82 666.536C2288.27 667.92 2288.69 669.349 2289.09 670.822C2289.49 672.295 2289.85 673.701 2290.16 675.04C2290.52 676.335 2290.77 677.339 2290.9 678.054C2291.03 677.339 2291.28 676.313 2291.64 674.973C2291.99 673.634 2292.4 672.228 2292.84 670.755C2293.33 669.282 2293.8 667.853 2294.25 666.469C2294.69 665.085 2295.1 663.947 2295.45 663.054L2320.1 597.632H2336.5V691.982H2324.98ZM2425.9 691.982L2415.12 664.393H2372.13L2361.28 691.982H2348.02L2386.52 597.632H2401.05L2438.95 691.982H2425.9ZM2399.18 623.278C2398.46 621.493 2397.77 619.685 2397.1 617.854C2396.48 616.024 2395.92 614.372 2395.43 612.899C2394.94 611.381 2394.51 610.131 2394.16 609.149C2393.84 608.123 2393.66 607.498 2393.62 607.274C2393.53 607.498 2393.33 608.123 2393.02 609.149C2392.71 610.176 2392.28 611.448 2391.75 612.966C2391.25 614.484 2390.67 616.158 2390 617.988C2389.38 619.819 2388.73 621.627 2388.06 623.412L2376.01 654.416H2411.3L2399.18 623.278ZM2523.46 626.024C2523.46 630.131 2522.77 633.97 2521.38 637.541C2520.05 641.068 2518.01 644.148 2515.29 646.782C2512.61 649.371 2509.24 651.425 2505.18 652.943C2501.12 654.461 2496.39 655.22 2490.98 655.22H2463.26V691.982H2450.47V597.632H2490.18C2495.76 597.632 2500.63 598.324 2504.78 599.708C2508.93 601.047 2512.39 602.966 2515.16 605.466C2517.93 607.922 2520 610.913 2521.38 614.439C2522.77 617.921 2523.46 621.783 2523.46 626.024ZM2510.6 626.158C2510.6 620.176 2508.77 615.645 2505.11 612.564C2501.45 609.439 2495.96 607.877 2488.64 607.877H2463.26V645.108H2489.18C2496.54 645.108 2501.94 643.479 2505.38 640.22C2508.86 636.961 2510.6 632.274 2510.6 626.158ZM2615.87 665.934C2615.87 669.907 2615.09 673.567 2613.53 676.915C2612.01 680.263 2609.64 683.165 2606.43 685.62C2603.21 688.031 2599.15 689.928 2594.24 691.312C2589.37 692.652 2583.59 693.321 2576.9 693.321C2565.16 693.321 2556 691.268 2549.44 687.161C2542.88 683.054 2538.71 677.116 2536.92 669.349L2549.31 666.871C2549.93 669.326 2550.89 671.558 2552.19 673.567C2553.48 675.576 2555.22 677.317 2557.41 678.79C2559.64 680.219 2562.39 681.335 2565.65 682.138C2568.91 682.942 2572.81 683.344 2577.37 683.344C2581.16 683.344 2584.64 683.031 2587.81 682.406C2590.98 681.737 2593.7 680.732 2595.98 679.393C2598.26 678.054 2600.02 676.335 2601.27 674.237C2602.57 672.094 2603.21 669.549 2603.21 666.603C2603.21 663.523 2602.5 661.023 2601.07 659.103C2599.69 657.184 2597.72 655.599 2595.18 654.349C2592.63 653.099 2589.6 652.05 2586.07 651.202C2582.54 650.354 2578.64 649.438 2574.35 648.456C2571.72 647.876 2569.06 647.251 2566.38 646.581C2563.75 645.867 2561.21 645.041 2558.75 644.104C2556.34 643.122 2554.06 641.983 2551.92 640.689C2549.78 639.394 2547.92 637.854 2546.36 636.068C2544.8 634.238 2543.57 632.14 2542.68 629.774C2541.79 627.363 2541.34 624.595 2541.34 621.47C2541.34 617.006 2542.23 613.189 2544.02 610.02C2545.85 606.806 2548.37 604.172 2551.58 602.118C2554.8 600.065 2558.59 598.569 2562.97 597.632C2567.34 596.694 2572.08 596.226 2577.16 596.226C2583.01 596.226 2588.01 596.694 2592.16 597.632C2596.32 598.525 2599.82 599.886 2602.68 601.716C2605.53 603.547 2607.81 605.823 2609.51 608.547C2611.25 611.225 2612.63 614.35 2613.66 617.921L2601.07 620.131C2600.45 617.854 2599.53 615.823 2598.32 614.038C2597.16 612.252 2595.62 610.756 2593.7 609.551C2591.78 608.346 2589.44 607.431 2586.67 606.806C2583.95 606.181 2580.74 605.868 2577.03 605.868C2572.66 605.868 2568.97 606.27 2565.98 607.073C2563.04 607.832 2560.65 608.881 2558.82 610.221C2557.03 611.56 2555.74 613.145 2554.93 614.975C2554.17 616.761 2553.79 618.703 2553.79 620.801C2553.79 623.613 2554.49 625.935 2555.87 627.765C2557.3 629.551 2559.22 631.046 2561.63 632.251C2564.04 633.457 2566.83 634.461 2570 635.265C2573.17 636.068 2576.54 636.872 2580.11 637.675C2583.01 638.345 2585.89 639.037 2588.75 639.751C2591.65 640.421 2594.42 641.247 2597.05 642.229C2599.69 643.166 2602.14 644.282 2604.42 645.577C2606.74 646.872 2608.75 648.456 2610.44 650.331C2612.14 652.206 2613.46 654.416 2614.4 656.961C2615.38 659.505 2615.87 662.496 2615.87 665.934ZM2730.84 691.982L2720.06 664.393H2677.07L2666.22 691.982H2652.97L2691.47 597.632H2706L2743.9 691.982H2730.84ZM2704.13 623.278C2703.41 621.493 2702.72 619.685 2702.05 617.854C2701.42 616.024 2700.87 614.372 2700.38 612.899C2699.88 611.381 2699.46 610.131 2699.1 609.149C2698.79 608.123 2698.61 607.498 2698.57 607.274C2698.48 607.498 2698.28 608.123 2697.97 609.149C2697.65 610.176 2697.23 611.448 2696.69 612.966C2696.2 614.484 2695.62 616.158 2694.95 617.988C2694.33 619.819 2693.68 621.627 2693.01 623.412L2680.96 654.416H2716.25L2704.13 623.278ZM2816.62 691.982L2766.13 611.627C2766.22 613.814 2766.33 615.979 2766.47 618.122C2766.56 619.953 2766.62 621.894 2766.67 623.948C2766.76 625.957 2766.8 627.743 2766.8 629.305V691.982H2755.42V597.632H2770.28L2821.31 678.522C2821.18 676.335 2821.04 674.148 2820.91 671.96C2820.82 670.085 2820.73 668.054 2820.64 665.867C2820.55 663.634 2820.51 661.514 2820.51 659.505V597.632H2832.02V691.982H2816.62ZM2935.75 643.836C2935.75 651.693 2934.57 658.635 2932.2 664.661C2929.83 670.643 2926.6 675.665 2922.49 679.728C2918.38 683.746 2913.52 686.803 2907.89 688.902C2902.31 690.955 2896.29 691.982 2889.81 691.982H2854.52V597.632H2885.73C2893 597.632 2899.7 598.547 2905.82 600.377C2911.98 602.163 2917.27 604.953 2921.69 608.748C2926.11 612.497 2929.54 617.274 2932 623.077C2934.5 628.881 2935.75 635.8 2935.75 643.836ZM2922.89 643.836C2922.89 637.452 2921.98 632.006 2920.15 627.497C2918.32 622.944 2915.75 619.216 2912.45 616.314C2909.14 613.413 2905.19 611.292 2900.59 609.953C2896 608.569 2890.95 607.877 2885.46 607.877H2867.31V681.737H2888.34C2893.29 681.737 2897.87 680.933 2902.07 679.326C2906.31 677.719 2909.97 675.331 2913.05 672.161C2916.13 668.991 2918.54 665.041 2920.28 660.309C2922.02 655.577 2922.89 650.086 2922.89 643.836ZM3073.02 643.836C3073.02 651.693 3071.84 658.635 3069.47 664.661C3067.11 670.643 3063.87 675.665 3059.76 679.728C3055.66 683.746 3050.79 686.803 3045.17 688.902C3039.59 690.955 3033.56 691.982 3027.09 691.982H2991.8V597.632H3023C3030.28 597.632 3036.97 598.547 3043.09 600.377C3049.25 602.163 3054.54 604.953 3058.96 608.748C3063.38 612.497 3066.82 617.274 3069.27 623.077C3071.77 628.881 3073.02 635.8 3073.02 643.836ZM3060.17 643.836C3060.17 637.452 3059.25 632.006 3057.42 627.497C3055.59 622.944 3053.02 619.216 3049.72 616.314C3046.42 613.413 3042.46 611.292 3037.87 609.953C3033.27 608.569 3028.22 607.877 3022.73 607.877H3004.59V681.737H3025.61C3030.57 681.737 3035.14 680.933 3039.34 679.326C3043.58 677.719 3047.24 675.331 3050.32 672.161C3053.4 668.991 3055.81 665.041 3057.55 660.309C3059.29 655.577 3060.17 650.086 3060.17 643.836ZM3157.8 691.982L3147.02 664.393H3104.03L3093.18 691.982H3079.92L3118.42 597.632H3132.95L3170.85 691.982H3157.8ZM3131.08 623.278C3130.36 621.493 3129.67 619.685 3129 617.854C3128.38 616.024 3127.82 614.372 3127.33 612.899C3126.84 611.381 3126.41 610.131 3126.06 609.149C3125.74 608.123 3125.57 607.498 3125.52 607.274C3125.43 607.498 3125.23 608.123 3124.92 609.149C3124.61 610.176 3124.18 611.448 3123.65 612.966C3123.15 614.484 3122.57 616.158 3121.9 617.988C3121.28 619.819 3120.63 621.627 3119.96 623.412L3107.91 654.416H3143.2L3131.08 623.278ZM3209.16 608.078V691.982H3196.43V608.078H3164.02V597.632H3241.57V608.078H3209.16ZM3312.75 691.982L3301.97 664.393H3258.98L3248.13 691.982H3234.87L3273.37 597.632H3287.9L3325.81 691.982H3312.75ZM3286.03 623.278C3285.32 621.493 3284.62 619.685 3283.95 617.854C3283.33 616.024 3282.77 614.372 3282.28 612.899C3281.79 611.381 3281.36 610.131 3281.01 609.149C3280.7 608.123 3280.52 607.498 3280.47 607.274C3280.38 607.498 3280.18 608.123 3279.87 609.149C3279.56 610.176 3279.13 611.448 3278.6 612.966C3278.11 614.484 3277.53 616.158 3276.86 617.988C3276.23 619.819 3275.58 621.627 3274.91 623.412L3262.86 654.416H3298.15L3286.03 623.278ZM3408.97 691.982H3395.71L3357.21 597.632H3370.67L3396.79 664.059C3397.46 666.067 3398.13 668.076 3398.79 670.085C3399.46 672.049 3400.07 673.813 3400.6 675.375C3401.23 677.206 3401.83 678.991 3402.41 680.732C3402.95 679.08 3403.53 677.339 3404.15 675.509C3404.69 673.947 3405.27 672.183 3405.89 670.219C3406.56 668.255 3407.28 666.201 3408.04 664.059L3434.02 597.632H3447.48L3408.97 691.982ZM3460.74 691.982V597.632H3473.52V691.982H3460.74ZM3571.42 665.934C3571.42 669.907 3570.64 673.567 3569.08 676.915C3567.56 680.263 3565.2 683.165 3561.98 685.62C3558.77 688.031 3554.71 689.928 3549.8 691.312C3544.93 692.652 3539.15 693.321 3532.45 693.321C3520.71 693.321 3511.56 691.268 3505 687.161C3498.43 683.054 3494.26 677.116 3492.48 669.349L3504.86 666.871C3505.49 669.326 3506.45 671.558 3507.74 673.567C3509.04 675.576 3510.78 677.317 3512.97 678.79C3515.2 680.219 3517.94 681.335 3521.2 682.138C3524.46 682.942 3528.37 683.344 3532.92 683.344C3536.72 683.344 3540.2 683.031 3543.37 682.406C3546.54 681.737 3549.26 680.732 3551.54 679.393C3553.81 678.054 3555.58 676.335 3556.83 674.237C3558.12 672.094 3558.77 669.549 3558.77 666.603C3558.77 663.523 3558.05 661.023 3556.63 659.103C3555.24 657.184 3553.28 655.599 3550.73 654.349C3548.19 653.099 3545.15 652.05 3541.63 651.202C3538.1 650.354 3534.19 649.438 3529.91 648.456C3527.27 647.876 3524.62 647.251 3521.94 646.581C3519.3 645.867 3516.76 645.041 3514.31 644.104C3511.89 643.122 3509.62 641.983 3507.47 640.689C3505.33 639.394 3503.48 637.854 3501.92 636.068C3500.35 634.238 3499.13 632.14 3498.23 629.774C3497.34 627.363 3496.89 624.595 3496.89 621.47C3496.89 617.006 3497.79 613.189 3499.57 610.02C3501.4 606.806 3503.93 604.172 3507.14 602.118C3510.35 600.065 3514.15 598.569 3518.52 597.632C3522.9 596.694 3527.63 596.226 3532.72 596.226C3538.57 596.226 3543.57 596.694 3547.72 597.632C3551.87 598.525 3555.38 599.886 3558.23 601.716C3561.09 603.547 3563.37 605.823 3565.06 608.547C3566.8 611.225 3568.19 614.35 3569.21 617.921L3556.63 620.131C3556 617.854 3555.09 615.823 3553.88 614.038C3552.72 612.252 3551.18 610.756 3549.26 609.551C3547.34 608.346 3545 607.431 3542.23 606.806C3539.51 606.181 3536.29 605.868 3532.59 605.868C3528.21 605.868 3524.53 606.27 3521.54 607.073C3518.59 607.832 3516.2 608.881 3514.37 610.221C3512.59 611.56 3511.29 613.145 3510.49 614.975C3509.73 616.761 3509.35 618.703 3509.35 620.801C3509.35 623.613 3510.04 625.935 3511.43 627.765C3512.85 629.551 3514.77 631.046 3517.18 632.251C3519.6 633.457 3522.39 634.461 3525.55 635.265C3528.72 636.068 3532.09 636.872 3535.67 637.675C3538.57 638.345 3541.45 639.037 3544.3 639.751C3547.21 640.421 3549.97 641.247 3552.61 642.229C3555.24 643.166 3557.7 644.282 3559.97 645.577C3562.29 646.872 3564.3 648.456 3566 650.331C3567.7 652.206 3569.01 654.416 3569.95 656.961C3570.93 659.505 3571.42 662.496 3571.42 665.934ZM3626.67 693.321C3621.49 693.321 3616.58 692.629 3611.94 691.245C3607.29 689.861 3603.21 687.719 3599.68 684.817C3596.2 681.871 3593.43 678.165 3591.38 673.701C3589.33 669.192 3588.3 663.858 3588.3 657.697V597.632H3601.09V656.626C3601.09 661.402 3601.71 665.465 3602.96 668.813C3604.26 672.116 3606.04 674.817 3608.32 676.915C3610.6 679.014 3613.28 680.554 3616.36 681.536C3619.48 682.473 3622.9 682.942 3626.6 682.942C3630.26 682.942 3633.72 682.451 3636.98 681.469C3640.24 680.487 3643.1 678.924 3645.55 676.781C3648.01 674.639 3649.93 671.849 3651.31 668.411C3652.74 664.929 3653.45 660.71 3653.45 655.755V597.632H3666.18V656.492C3666.18 662.786 3665.13 668.255 3663.03 672.898C3660.98 677.496 3658.16 681.313 3654.59 684.348C3651.02 687.384 3646.82 689.638 3642 691.111C3637.23 692.585 3632.11 693.321 3626.67 693.321ZM3754.97 691.982L3744.19 664.393H3701.2L3690.35 691.982H3677.09L3715.59 597.632H3730.13L3768.03 691.982H3754.97ZM3728.25 623.278C3727.54 621.493 3726.84 619.685 3726.17 617.854C3725.55 616.024 3724.99 614.372 3724.5 612.899C3724.01 611.381 3723.59 610.131 3723.23 609.149C3722.92 608.123 3722.74 607.498 3722.69 607.274C3722.6 607.498 3722.4 608.123 3722.09 609.149C3721.78 610.176 3721.35 611.448 3720.82 612.966C3720.33 614.484 3719.75 616.158 3719.08 617.988C3718.45 619.819 3717.8 621.627 3717.13 623.412L3705.08 654.416H3740.37L3728.25 623.278ZM3779.54 691.982V597.632H3792.33V681.536H3840.01V691.982H3779.54ZM3857.29 691.982V597.632H3870.08V691.982H3857.29ZM3962.28 691.982H3887.15V682.406L3944.61 608.078H3892.04V597.632H3959.14V606.94L3901.68 681.536H3962.28V691.982ZM4044.78 691.982L4034 664.393H3991.01L3980.16 691.982H3966.9L4005.41 597.632H4019.94L4057.84 691.982H4044.78ZM4018.06 623.278C4017.35 621.493 4016.66 619.685 4015.99 617.854C4015.36 616.024 4014.81 614.372 4014.31 612.899C4013.82 611.381 4013.4 610.131 4013.04 609.149C4012.73 608.123 4012.55 607.498 4012.51 607.274C4012.42 607.498 4012.22 608.123 4011.9 609.149C4011.59 610.176 4011.17 611.448 4010.63 612.966C4010.14 614.484 4009.56 616.158 4008.89 617.988C4008.27 619.819 4007.62 621.627 4006.95 623.412L3994.9 654.416H4030.18L4018.06 623.278ZM4096.14 608.078V691.982H4083.42V608.078H4051.01V597.632H4128.55V608.078H4096.14ZM4144.42 691.982V597.632H4157.21V691.982H4144.42ZM4270.04 644.372C4270.04 651.737 4268.97 658.434 4266.83 664.46C4264.73 670.487 4261.67 675.643 4257.66 679.929C4253.64 684.214 4248.73 687.518 4242.92 689.839C4237.12 692.161 4230.54 693.321 4223.17 693.321C4215.4 693.321 4208.6 692.116 4202.75 689.705C4196.9 687.25 4192.03 683.857 4188.15 679.527C4184.27 675.152 4181.34 669.974 4179.38 663.992C4177.41 658.01 4176.43 651.47 4176.43 644.372C4176.43 637.006 4177.46 630.354 4179.51 624.417C4181.56 618.479 4184.58 613.435 4188.55 609.283C4192.52 605.087 4197.41 601.873 4203.22 599.641C4209.06 597.364 4215.76 596.226 4223.3 596.226C4230.8 596.226 4237.46 597.364 4243.26 599.641C4249.11 601.917 4254 605.154 4257.92 609.35C4261.9 613.546 4264.91 618.613 4266.96 624.551C4269.02 630.488 4270.04 637.095 4270.04 644.372ZM4256.99 644.372C4256.99 638.702 4256.25 633.546 4254.78 628.903C4253.35 624.26 4251.21 620.287 4248.35 616.984C4245.54 613.68 4242.03 611.136 4237.84 609.35C4233.64 607.565 4228.8 606.672 4223.3 606.672C4217.68 606.672 4212.75 607.565 4208.51 609.35C4204.26 611.136 4200.72 613.68 4197.86 616.984C4195.05 620.287 4192.93 624.26 4191.5 628.903C4190.11 633.546 4189.42 638.702 4189.42 644.372C4189.42 650.041 4190.14 655.242 4191.56 659.974C4193.04 664.661 4195.18 668.724 4197.99 672.161C4200.85 675.554 4204.38 678.21 4208.57 680.13C4212.81 682.005 4217.68 682.942 4223.17 682.942C4229.06 682.942 4234.13 681.982 4238.37 680.063C4242.66 678.143 4246.16 675.487 4248.88 672.094C4251.65 668.657 4253.68 664.572 4254.98 659.84C4256.32 655.108 4256.99 649.952 4256.99 644.372ZM4349.13 691.982L4298.64 611.627C4298.73 613.814 4298.84 615.979 4298.97 618.122C4299.06 619.953 4299.13 621.894 4299.17 623.948C4299.26 625.957 4299.31 627.743 4299.31 629.305V691.982H4287.92V597.632H4302.79L4353.81 678.522C4353.68 676.335 4353.55 674.148 4353.41 671.96C4353.32 670.085 4353.23 668.054 4353.14 665.867C4353.06 663.634 4353.01 661.514 4353.01 659.505V597.632H4364.53V691.982H4349.13ZM4460.95 665.934C4460.95 669.907 4460.17 673.567 4458.61 676.915C4457.09 680.263 4454.73 683.165 4451.51 685.62C4448.3 688.031 4444.24 689.928 4439.33 691.312C4434.46 692.652 4428.68 693.321 4421.98 693.321C4410.24 693.321 4401.09 691.268 4394.53 687.161C4387.97 683.054 4383.79 677.116 4382.01 669.349L4394.39 666.871C4395.02 669.326 4395.98 671.558 4397.27 673.567C4398.57 675.576 4400.31 677.317 4402.5 678.79C4404.73 680.219 4407.47 681.335 4410.73 682.138C4413.99 682.942 4417.9 683.344 4422.45 683.344C4426.25 683.344 4429.73 683.031 4432.9 682.406C4436.07 681.737 4438.79 680.732 4441.07 679.393C4443.34 678.054 4445.11 676.335 4446.36 674.237C4447.65 672.094 4448.3 669.549 4448.3 666.603C4448.3 663.523 4447.58 661.023 4446.16 659.103C4444.77 657.184 4442.81 655.599 4440.26 654.349C4437.72 653.099 4434.68 652.05 4431.16 651.202C4427.63 650.354 4423.72 649.438 4419.44 648.456C4416.8 647.876 4414.15 647.251 4411.47 646.581C4408.84 645.867 4406.29 645.041 4403.84 644.104C4401.42 643.122 4399.15 641.983 4397.01 640.689C4394.86 639.394 4393.01 637.854 4391.45 636.068C4389.88 634.238 4388.66 632.14 4387.76 629.774C4386.87 627.363 4386.43 624.595 4386.43 621.47C4386.43 617.006 4387.32 613.189 4389.1 610.02C4390.93 606.806 4393.46 604.172 4396.67 602.118C4399.88 600.065 4403.68 598.569 4408.05 597.632C4412.43 596.694 4417.16 596.226 4422.25 596.226C4428.1 596.226 4433.1 596.694 4437.25 597.632C4441.4 598.525 4444.91 599.886 4447.76 601.716C4450.62 603.547 4452.9 605.823 4454.59 608.547C4456.33 611.225 4457.72 614.35 4458.74 617.921L4446.16 620.131C4445.53 617.854 4444.62 615.823 4443.41 614.038C4442.25 612.252 4440.71 610.756 4438.79 609.551C4436.87 608.346 4434.53 607.431 4431.76 606.806C4429.04 606.181 4425.82 605.868 4422.12 605.868C4417.74 605.868 4414.06 606.27 4411.07 607.073C4408.12 607.832 4405.73 608.881 4403.9 610.221C4402.12 611.56 4400.82 613.145 4400.02 614.975C4399.26 616.761 4398.88 618.703 4398.88 620.801C4398.88 623.613 4399.57 625.935 4400.96 627.765C4402.38 629.551 4404.3 631.046 4406.71 632.251C4409.13 633.457 4411.92 634.461 4415.09 635.265C4418.25 636.068 4421.63 636.872 4425.2 637.675C4428.1 638.345 4430.98 639.037 4433.83 639.751C4436.74 640.421 4439.5 641.247 4442.14 642.229C4444.77 643.166 4447.23 644.282 4449.5 645.577C4451.83 646.872 4453.83 648.456 4455.53 650.331C4457.23 652.206 4458.54 654.416 4459.48 656.961C4460.46 659.505 4460.95 662.496 4460.95 665.934Z" fill="white"/>
</svg>
