<svg width="1983" height="670" viewBox="0 0 1983 670" fill="none" xmlns="http://www.w3.org/2000/svg">
<path d="M602.76 70H72.7598V600H602.76V70Z" fill="#B4C3F3"/>
<path d="M357.459 444.007C445.326 444.007 516.556 374.798 516.556 289.424C516.556 204.05 445.326 134.84 357.459 134.84C269.592 134.84 198.362 204.05 198.362 289.424C198.362 374.798 269.592 444.007 357.459 444.007Z" fill="#FF952F" stroke="black" stroke-width="0.833333"/>
<path d="M238.567 534.14L348.954 348.368L459.342 534.14H238.567Z" fill="#288CA3" stroke="black" stroke-width="0.833333"/>
<path d="M109.408 534.683L243.975 308.218L378.542 534.683H109.408Z" fill="#288CA3" stroke="black" stroke-width="0.833333"/>
<path d="M484.039 218.295H538.977L566.445 264.522L538.977 310.748H484.039L456.571 264.522L484.039 218.295Z" fill="white" stroke="black" stroke-width="0.833333"/>
<path d="M398.661 203.927H470.674L506.68 264.522L470.674 325.116H398.661L362.656 264.522L398.661 203.927Z" fill="white" stroke="black" stroke-width="0.833333"/>
<path d="M330.361 218.295H385.298L412.766 264.522L385.298 310.748H330.361L302.893 264.522L330.361 218.295Z" fill="white" stroke="black" stroke-width="0.833333"/>
<path d="M795.558 407V333.951C795.558 331.043 795.586 328.049 795.643 324.969C795.757 321.89 795.871 319.067 795.985 316.501C796.156 313.479 796.299 310.542 796.413 307.691C795.215 312.196 794.075 316.473 792.991 320.521C792.535 322.232 792.051 324 791.537 325.825C791.024 327.65 790.511 329.417 789.998 331.128C789.541 332.839 789.085 334.436 788.629 335.918C788.173 337.401 787.774 338.684 787.431 339.767L765.705 407H747.742L726.015 339.767C725.673 338.684 725.274 337.401 724.818 335.918C724.419 334.436 723.962 332.839 723.449 331.128C722.993 329.417 722.508 327.65 721.995 325.825C721.482 324 720.969 322.232 720.455 320.521C719.315 316.473 718.117 312.196 716.863 307.691C717.034 310.998 717.205 314.249 717.376 317.442C717.49 320.179 717.604 323.059 717.718 326.081C717.832 329.104 717.889 331.727 717.889 333.951V407H695.478V286.477H729.266L750.821 353.881C751.392 355.649 751.99 357.816 752.618 360.382C753.302 362.948 753.958 365.429 754.585 367.824C755.269 370.618 756.011 373.526 756.809 376.549C757.607 373.583 758.377 370.732 759.118 367.995C759.461 366.797 759.803 365.571 760.145 364.317C760.487 363.062 760.829 361.836 761.171 360.639C761.514 359.441 761.856 358.301 762.198 357.217C762.54 356.134 762.854 355.164 763.139 354.309L784.352 286.477H817.968V407H795.558ZM863.303 408.711C858.855 408.711 854.864 408.112 851.328 406.914C847.85 405.66 844.884 403.864 842.432 401.526C839.98 399.131 838.098 396.194 836.787 392.715C835.475 389.237 834.819 385.273 834.819 380.825C834.819 375.351 835.76 370.761 837.642 367.054C839.581 363.29 842.204 360.268 845.512 357.987C848.819 355.649 852.697 353.967 857.145 352.94C861.593 351.857 866.326 351.286 871.344 351.229L891.274 350.887V346.183C891.274 342.818 890.961 340.024 890.333 337.8C889.763 335.519 888.908 333.666 887.767 332.24C886.627 330.814 885.201 329.816 883.49 329.246C881.837 328.619 879.926 328.305 877.759 328.305C875.763 328.305 873.967 328.505 872.37 328.904C870.831 329.303 869.491 330.016 868.35 331.043C867.21 332.012 866.269 333.352 865.527 335.063C864.843 336.717 864.358 338.826 864.073 341.393L839.011 340.195C839.695 336.146 840.95 332.468 842.774 329.161C844.599 325.796 847.108 322.888 850.302 320.436C853.552 317.984 857.515 316.102 862.191 314.79C866.925 313.422 872.456 312.737 878.786 312.737C884.545 312.737 889.678 313.45 894.183 314.876C898.688 316.302 902.508 318.44 905.645 321.291C908.781 324.085 911.176 327.535 912.83 331.641C914.483 335.747 915.31 340.509 915.31 345.926V379.628C915.31 381.795 915.396 383.734 915.567 385.444C915.795 387.155 916.166 388.609 916.679 389.807C917.249 390.947 918.019 391.831 918.988 392.459C920.015 393.029 921.327 393.314 922.923 393.314C924.748 393.314 926.516 393.143 928.227 392.801V405.802C926.801 406.145 925.518 406.458 924.377 406.743C923.237 407.029 922.096 407.257 920.956 407.428C919.815 407.599 918.589 407.741 917.278 407.855C916.023 407.969 914.541 408.026 912.83 408.026C906.785 408.026 902.309 406.544 899.4 403.578C896.549 400.613 894.838 396.251 894.268 390.491H893.755C890.561 396.251 886.456 400.727 881.437 403.921C876.476 407.114 870.432 408.711 863.303 408.711ZM891.274 364.146L878.957 364.317C876.391 364.431 873.939 364.659 871.601 365.001C869.32 365.286 867.295 365.942 865.527 366.968C863.817 367.938 862.448 369.363 861.422 371.245C860.395 373.127 859.882 375.693 859.882 378.944C859.882 383.335 860.88 386.614 862.876 388.78C864.929 390.89 867.637 391.945 871.002 391.945C874.081 391.945 876.875 391.29 879.385 389.978C881.894 388.666 884.004 386.956 885.714 384.846C887.482 382.679 888.851 380.198 889.82 377.404C890.79 374.61 891.274 371.758 891.274 368.85V364.146ZM1027.02 360.296C1027.02 367.311 1026.31 373.783 1024.88 379.713C1023.52 385.644 1021.38 390.748 1018.47 395.025C1015.56 399.302 1011.85 402.666 1007.35 405.118C1002.9 407.513 997.626 408.711 991.524 408.711C988.787 408.711 986.05 408.426 983.313 407.855C980.633 407.285 978.067 406.373 975.614 405.118C973.162 403.807 970.881 402.124 968.771 400.071C966.719 397.962 964.951 395.367 963.468 392.288H962.955C963.012 392.573 963.069 393.285 963.126 394.426C963.183 395.566 963.24 396.907 963.297 398.446C963.354 399.929 963.383 401.526 963.383 403.236C963.44 404.89 963.468 406.43 963.468 407.855V443.354H939.432V335.747C939.432 331.014 939.346 326.794 939.175 323.088C939.061 319.381 938.919 316.501 938.748 314.448H962.099C962.214 314.847 962.328 315.617 962.442 316.758C962.613 317.898 962.727 319.21 962.784 320.692C962.898 322.175 962.983 323.715 963.04 325.311C963.097 326.908 963.126 328.305 963.126 329.503H963.468C966.376 323.401 970.368 319.039 975.443 316.416C980.519 313.792 986.392 312.481 993.064 312.481C998.938 312.481 1004.01 313.678 1008.29 316.073C1012.57 318.468 1016.07 321.776 1018.81 325.996C1021.61 330.216 1023.66 335.262 1024.97 341.136C1026.34 346.953 1027.02 353.339 1027.02 360.296ZM1001.96 360.296C1001.96 349.747 1000.36 341.934 997.17 336.859C993.977 331.727 989.215 329.161 982.885 329.161C980.49 329.161 978.095 329.674 975.7 330.7C973.362 331.67 971.252 333.381 969.37 335.833C967.545 338.228 966.034 341.478 964.837 345.584C963.696 349.633 963.126 354.765 963.126 360.981C963.126 367.025 963.696 372.072 964.837 376.121C965.977 380.113 967.46 383.306 969.285 385.701C971.166 388.096 973.276 389.807 975.614 390.833C977.952 391.803 980.319 392.288 982.714 392.288C985.793 392.288 988.531 391.689 990.926 390.491C993.321 389.237 995.317 387.326 996.913 384.76C998.567 382.137 999.822 378.801 1000.68 374.752C1001.53 370.703 1001.96 365.885 1001.96 360.296ZM1100.41 305.98V407H1075.18V305.98H1036.26V286.477H1139.42V305.98H1100.41ZM1177.31 332.924C1180.56 325.853 1184.64 320.721 1189.54 317.528C1194.45 314.334 1200.29 312.737 1207.08 312.737C1212.67 312.737 1217.37 313.65 1221.19 315.475C1225.07 317.299 1228.21 319.809 1230.6 323.002C1233.05 326.195 1234.82 329.959 1235.91 334.293C1236.99 338.627 1237.53 343.303 1237.53 348.321V407H1213.58V355.164C1213.58 351.572 1213.3 348.293 1212.72 345.327C1212.15 342.305 1211.21 339.739 1209.9 337.629C1208.59 335.462 1206.88 333.78 1204.77 332.582C1202.66 331.385 1200.09 330.786 1197.07 330.786C1194.16 330.786 1191.51 331.442 1189.12 332.753C1186.78 334.008 1184.75 335.833 1183.04 338.228C1181.33 340.566 1179.99 343.388 1179.02 346.696C1178.11 349.946 1177.65 353.539 1177.65 357.474V407H1153.62V280.062H1177.65V314.705C1177.65 316.53 1177.63 318.383 1177.57 320.265C1177.51 322.09 1177.43 323.829 1177.31 325.483C1177.26 327.079 1177.2 328.533 1177.14 329.845C1177.08 331.157 1177.03 332.183 1176.97 332.924H1177.31ZM1298.6 408.711C1291.93 408.711 1285.92 407.741 1280.56 405.802C1275.25 403.807 1270.72 400.813 1266.96 396.821C1263.19 392.772 1260.31 387.726 1258.32 381.681C1256.32 375.579 1255.32 368.451 1255.32 360.296C1255.32 351.458 1256.49 344.016 1258.83 337.971C1261.22 331.926 1264.42 327.051 1268.41 323.344C1272.46 319.58 1277.11 316.872 1282.35 315.218C1287.6 313.564 1293.13 312.737 1298.95 312.737C1306.25 312.737 1312.46 314.021 1317.59 316.587C1322.78 319.096 1327.03 322.631 1330.34 327.193C1333.65 331.755 1336.07 337.23 1337.61 343.617C1339.15 349.946 1339.92 356.96 1339.92 364.659V365.343H1280.56C1280.56 369.221 1280.9 372.842 1281.58 376.206C1282.27 379.514 1283.38 382.394 1284.92 384.846C1286.46 387.241 1288.45 389.151 1290.91 390.577C1293.36 391.945 1296.32 392.63 1299.8 392.63C1304.02 392.63 1307.47 391.746 1310.15 389.978C1312.83 388.153 1314.74 385.359 1315.88 381.595L1338.55 383.563C1337.52 386.186 1336.07 388.98 1334.19 391.945C1332.36 394.911 1329.91 397.648 1326.83 400.157C1323.75 402.609 1319.9 404.662 1315.28 406.316C1310.72 407.912 1305.16 408.711 1298.6 408.711ZM1298.6 327.878C1296.15 327.878 1293.84 328.305 1291.68 329.161C1289.57 329.959 1287.71 331.271 1286.12 333.095C1284.58 334.863 1283.32 337.173 1282.35 340.024C1281.38 342.875 1280.84 346.297 1280.73 350.288H1316.65C1316.2 342.818 1314.4 337.23 1311.26 333.523C1308.13 329.759 1303.91 327.878 1298.6 327.878ZM1414 388.866C1418.73 388.866 1422.81 388.21 1426.23 386.899C1429.71 385.53 1432.7 383.762 1435.21 381.595C1437.77 379.428 1439.88 376.976 1441.54 374.239C1443.25 371.502 1444.65 368.736 1445.73 365.942L1467.71 374.239C1465.95 378.573 1463.64 382.821 1460.78 386.984C1457.93 391.147 1454.37 394.825 1450.09 398.019C1445.82 401.212 1440.71 403.807 1434.78 405.802C1428.91 407.741 1421.98 408.711 1414 408.711C1403.56 408.711 1394.52 407.171 1386.88 404.092C1379.24 400.955 1372.91 396.621 1367.89 391.09C1362.93 385.502 1359.22 378.887 1356.77 371.245C1354.38 363.604 1353.18 355.25 1353.18 346.183C1353.18 336.774 1354.38 328.277 1356.77 320.692C1359.22 313.108 1362.9 306.664 1367.8 301.361C1372.71 296.001 1378.9 291.895 1386.37 289.043C1393.89 286.135 1402.73 284.681 1412.88 284.681C1420.75 284.681 1427.62 285.508 1433.5 287.162C1439.43 288.815 1444.53 291.153 1448.81 294.176C1453.14 297.141 1456.71 300.677 1459.5 304.782C1462.35 308.831 1464.58 313.308 1466.17 318.212L1443.93 324.285C1443.14 321.719 1441.91 319.267 1440.26 316.929C1438.6 314.534 1436.49 312.424 1433.93 310.599C1431.42 308.774 1428.45 307.32 1425.03 306.237C1421.61 305.096 1417.73 304.526 1413.4 304.526C1407.29 304.526 1402.05 305.524 1397.66 307.52C1393.27 309.458 1389.65 312.253 1386.79 315.902C1384 319.552 1381.92 323.943 1380.55 329.075C1379.24 334.15 1378.58 339.853 1378.58 346.183C1378.58 352.455 1379.24 358.215 1380.55 363.461C1381.92 368.651 1384.03 373.127 1386.88 376.891C1389.73 380.654 1393.38 383.591 1397.83 385.701C1402.33 387.811 1407.72 388.866 1414 388.866ZM1484.82 407V280.062H1508.86V407H1484.82ZM1621.51 360.639C1621.51 367.71 1620.51 374.182 1618.52 380.056C1616.58 385.929 1613.64 391.004 1609.71 395.281C1605.77 399.501 1600.87 402.809 1594.99 405.204C1589.12 407.542 1582.28 408.711 1574.46 408.711C1566.94 408.711 1560.29 407.542 1554.53 405.204C1548.77 402.866 1543.93 399.587 1539.99 395.367C1536.11 391.147 1533.18 386.1 1531.18 380.227C1529.19 374.296 1528.19 367.767 1528.19 360.639C1528.19 353.739 1529.13 347.38 1531.01 341.564C1532.95 335.69 1535.86 330.615 1539.74 326.338C1543.61 322.061 1548.49 318.725 1554.36 316.33C1560.24 313.935 1567.11 312.737 1574.98 312.737C1583.3 312.737 1590.4 313.935 1596.28 316.33C1602.15 318.725 1606.94 322.061 1610.65 326.338C1614.41 330.558 1617.15 335.605 1618.86 341.478C1620.63 347.295 1621.51 353.681 1621.51 360.639ZM1596.36 360.639C1596.36 349.633 1594.57 341.649 1590.97 336.688C1587.38 331.727 1582.16 329.246 1575.32 329.246C1568.25 329.246 1562.83 331.755 1559.07 336.774C1555.3 341.792 1553.42 349.747 1553.42 360.639C1553.42 366.17 1553.91 370.932 1554.88 374.923C1555.9 378.915 1557.33 382.194 1559.15 384.76C1560.98 387.326 1563.17 389.237 1565.74 390.491C1568.31 391.689 1571.13 392.288 1574.21 392.288C1577.74 392.288 1580.88 391.689 1583.62 390.491C1586.41 389.237 1588.75 387.326 1590.63 384.76C1592.51 382.194 1593.94 378.915 1594.91 374.923C1595.88 370.932 1596.36 366.17 1596.36 360.639ZM1663.34 314.448V366.37C1663.34 369.962 1663.62 373.27 1664.19 376.292C1664.76 379.257 1665.7 381.823 1667.02 383.99C1668.33 386.1 1670.01 387.754 1672.06 388.952C1674.17 390.149 1676.74 390.748 1679.76 390.748C1682.67 390.748 1685.29 390.121 1687.63 388.866C1690.03 387.554 1692.08 385.73 1693.79 383.392C1695.5 380.997 1696.81 378.174 1697.72 374.923C1698.69 371.616 1699.18 367.995 1699.18 364.06V314.448H1723.21V386.3C1723.21 388.239 1723.21 390.292 1723.21 392.459C1723.27 394.569 1723.33 396.593 1723.39 398.532C1723.5 400.414 1723.58 402.124 1723.64 403.664C1723.76 405.147 1723.84 406.259 1723.9 407H1700.97C1700.92 406.316 1700.8 405.232 1700.63 403.75C1700.52 402.21 1700.4 400.528 1700.29 398.703C1700.23 396.878 1700.15 395.053 1700.03 393.228C1699.98 391.404 1699.95 389.864 1699.95 388.609H1699.52C1696.33 395.623 1692.25 400.727 1687.29 403.921C1682.38 407.114 1676.54 408.711 1669.75 408.711C1664.22 408.711 1659.52 407.798 1655.64 405.974C1651.76 404.149 1648.6 401.668 1646.14 398.532C1643.75 395.338 1642.01 391.575 1640.93 387.241C1639.84 382.907 1639.3 378.231 1639.3 373.213V314.448H1663.34ZM1807.73 407C1807.61 406.544 1807.47 405.745 1807.3 404.605C1807.18 403.407 1807.04 402.067 1806.87 400.585C1806.76 399.102 1806.64 397.591 1806.53 396.051C1806.47 394.511 1806.44 393.143 1806.44 391.945H1806.1C1803.31 397.933 1799.4 402.238 1794.38 404.862C1789.42 407.428 1783.46 408.711 1776.5 408.711C1770.69 408.711 1765.64 407.513 1761.36 405.118C1757.14 402.723 1753.64 399.387 1750.84 395.11C1748.11 390.833 1746.05 385.787 1744.68 379.97C1743.37 374.096 1742.72 367.71 1742.72 360.81C1742.72 353.796 1743.4 347.352 1744.77 341.478C1746.2 335.605 1748.36 330.558 1751.27 326.338C1754.18 322.061 1757.86 318.725 1762.3 316.33C1766.81 313.935 1772.14 312.737 1778.3 312.737C1781.32 312.737 1784.23 313.051 1787.03 313.678C1789.82 314.306 1792.41 315.275 1794.81 316.587C1797.2 317.898 1799.37 319.58 1801.31 321.633C1803.25 323.686 1804.9 326.167 1806.27 329.075H1806.44C1806.44 328.505 1806.41 327.678 1806.36 326.595C1806.36 325.454 1806.36 324.171 1806.36 322.745C1806.36 321.32 1806.33 319.837 1806.27 318.297C1806.27 316.758 1806.27 315.275 1806.27 313.849V280.062H1830.31V386.813C1830.31 391.318 1830.39 395.338 1830.56 398.874C1830.73 402.352 1830.88 405.061 1830.99 407H1807.73ZM1806.61 360.211C1806.61 354.109 1806.04 349.062 1804.9 345.071C1803.76 341.022 1802.25 337.829 1800.37 335.49C1798.54 333.095 1796.43 331.442 1794.04 330.529C1791.7 329.56 1789.31 329.075 1786.85 329.075C1783.77 329.075 1781.04 329.674 1778.64 330.871C1776.3 332.069 1774.31 333.951 1772.65 336.517C1771.06 339.083 1769.83 342.362 1768.98 346.354C1768.18 350.346 1767.78 355.164 1767.78 360.81C1767.78 381.795 1774.08 392.288 1786.68 392.288C1789.08 392.288 1791.47 391.774 1793.87 390.748C1796.26 389.721 1798.4 387.982 1800.28 385.53C1802.17 383.078 1803.68 379.799 1804.82 375.693C1806.01 371.53 1806.61 366.37 1806.61 360.211ZM1932.87 379.97C1932.87 384.418 1931.93 388.41 1930.04 391.945C1928.22 395.481 1925.54 398.503 1922 401.012C1918.47 403.464 1914.13 405.375 1909 406.743C1903.87 408.055 1898.02 408.711 1891.47 408.711C1885.59 408.711 1880.29 408.283 1875.56 407.428C1870.82 406.572 1866.66 405.175 1863.07 403.236C1859.53 401.24 1856.57 398.674 1854.17 395.538C1851.78 392.402 1849.98 388.524 1848.78 383.905L1869.91 380.74C1870.6 383.306 1871.54 385.387 1872.73 386.984C1873.93 388.581 1875.41 389.807 1877.18 390.662C1878.95 391.518 1881 392.088 1883.34 392.373C1885.74 392.658 1888.44 392.801 1891.47 392.801C1894.2 392.801 1896.74 392.658 1899.08 392.373C1901.47 392.031 1903.53 391.489 1905.24 390.748C1907.01 389.949 1908.37 388.866 1909.34 387.497C1910.31 386.072 1910.8 384.304 1910.8 382.194C1910.8 379.799 1910.09 377.917 1908.66 376.549C1907.29 375.123 1905.38 373.982 1902.93 373.127C1900.53 372.215 1897.68 371.445 1894.37 370.818C1891.12 370.133 1887.65 369.363 1883.94 368.508C1880.06 367.653 1876.24 366.626 1872.48 365.429C1868.71 364.231 1865.35 362.606 1862.38 360.553C1859.42 358.5 1857.02 355.905 1855.2 352.769C1853.37 349.576 1852.46 345.555 1852.46 340.708C1852.46 336.317 1853.32 332.411 1855.03 328.99C1856.74 325.511 1859.25 322.574 1862.55 320.179C1865.86 317.727 1869.94 315.874 1874.79 314.619C1879.69 313.308 1885.31 312.652 1891.64 312.652C1896.66 312.652 1901.33 313.137 1905.67 314.106C1910 315.018 1913.88 316.501 1917.3 318.554C1920.72 320.55 1923.57 323.116 1925.85 326.252C1928.19 329.389 1929.82 333.181 1930.73 337.629L1909.43 339.853C1909.03 337.629 1908.32 335.804 1907.29 334.378C1906.26 332.896 1904.98 331.727 1903.44 330.871C1901.96 330.016 1900.22 329.446 1898.22 329.161C1896.23 328.819 1894.03 328.647 1891.64 328.647C1885.94 328.647 1881.66 329.389 1878.81 330.871C1875.96 332.297 1874.53 334.721 1874.53 338.142C1874.53 340.252 1875.1 341.934 1876.24 343.189C1877.44 344.443 1879.09 345.498 1881.2 346.354C1883.37 347.152 1885.91 347.865 1888.81 348.492C1891.78 349.062 1895 349.775 1898.48 350.631C1902.76 351.543 1906.95 352.627 1911.05 353.881C1915.22 355.079 1918.9 356.761 1922.09 358.928C1925.34 361.038 1927.93 363.775 1929.87 367.139C1931.87 370.504 1932.87 374.781 1932.87 379.97Z" fill="#024D5F"/>
</svg>
